<svg id="visual" viewBox="0 0 900 600" width="900" height="600" xmlns="http://www.w3.org/2000/svg" xmlns:xlink="http://www.w3.org/1999/xlink" version="1.1"><path d="M0 109L13.7 103C27.3 97 54.7 85 82 83C109.3 81 136.7 89 163.8 94C191 99 218 101 245.2 103C272.3 105 299.7 107 327 106C354.3 105 381.7 101 409 91C436.3 81 463.7 65 491 57C518.3 49 545.7 49 573 54C600.3 59 627.7 69 654.8 72C682 75 709 71 736.2 72C763.3 73 790.7 79 818 81C845.3 83 872.7 81 886.3 80L900 79L900 0L886.3 0C872.7 0 845.3 0 818 0C790.7 0 763.3 0 736.2 0C709 0 682 0 654.8 0C627.7 0 600.3 0 573 0C545.7 0 518.3 0 491 0C463.7 0 436.3 0 409 0C381.7 0 354.3 0 327 0C299.7 0 272.3 0 245.2 0C218 0 191 0 163.8 0C136.7 0 109.3 0 82 0C54.7 0 27.3 0 13.7 0L0 0Z" fill="#f0f8ff"></path><path d="M0 169L13.7 158C27.3 147 54.7 125 82 118C109.3 111 136.7 119 163.8 124C191 129 218 131 245.2 135C272.3 139 299.7 145 327 148C354.3 151 381.7 151 409 143C436.3 135 463.7 119 491 114C518.3 109 545.7 115 573 123C600.3 131 627.7 141 654.8 137C682 133 709 115 736.2 111C763.3 107 790.7 117 818 125C845.3 133 872.7 139 886.3 142L900 145L900 77L886.3 78C872.7 79 845.3 81 818 79C790.7 77 763.3 71 736.2 70C709 69 682 73 654.8 70C627.7 67 600.3 57 573 52C545.7 47 518.3 47 491 55C463.7 63 436.3 79 409 89C381.7 99 354.3 103 327 104C299.7 105 272.3 103 245.2 101C218 99 191 97 163.8 92C136.7 87 109.3 79 82 81C54.7 83 27.3 95 13.7 101L0 107Z" fill="#dfe7ee"></path><path d="M0 295L13.7 283C27.3 271 54.7 247 82 234C109.3 221 136.7 219 163.8 222C191 225 218 233 245.2 232C272.3 231 299.7 221 327 217C354.3 213 381.7 215 409 213C436.3 211 463.7 205 491 213C518.3 221 545.7 243 573 252C600.3 261 627.7 257 654.8 236C682 215 709 177 736.2 170C763.3 163 790.7 187 818 200C845.3 213 872.7 215 886.3 216L900 217L900 143L886.3 140C872.7 137 845.3 131 818 123C790.7 115 763.3 105 736.2 109C709 113 682 131 654.8 135C627.7 139 600.3 129 573 121C545.7 113 518.3 107 491 112C463.7 117 436.3 133 409 141C381.7 149 354.3 149 327 146C299.7 143 272.3 137 245.2 133C218 129 191 127 163.8 122C136.7 117 109.3 109 82 116C54.7 123 27.3 145 13.7 156L0 167Z" fill="#ced6dd"></path><path d="M0 325L13.7 313C27.3 301 54.7 277 82 264C109.3 251 136.7 249 163.8 258C191 267 218 287 245.2 291C272.3 295 299.7 283 327 273C354.3 263 381.7 255 409 255C436.3 255 463.7 263 491 272C518.3 281 545.7 291 573 298C600.3 305 627.7 309 654.8 296C682 283 709 253 736.2 245C763.3 237 790.7 251 818 260C845.3 269 872.7 273 886.3 275L900 277L900 215L886.3 214C872.7 213 845.3 211 818 198C790.7 185 763.3 161 736.2 168C709 175 682 213 654.8 234C627.7 255 600.3 259 573 250C545.7 241 518.3 219 491 211C463.7 203 436.3 209 409 211C381.7 213 354.3 211 327 215C299.7 219 272.3 229 245.2 230C218 231 191 223 163.8 220C136.7 217 109.3 219 82 232C54.7 245 27.3 269 13.7 281L0 293Z" fill="#bdc5cc"></path><path d="M0 361L13.7 349C27.3 337 54.7 313 82 303C109.3 293 136.7 297 163.8 307C191 317 218 333 245.2 334C272.3 335 299.7 321 327 311C354.3 301 381.7 295 409 294C436.3 293 463.7 297 491 305C518.3 313 545.7 325 573 331C600.3 337 627.7 337 654.8 325C682 313 709 289 736.2 285C763.3 281 790.7 297 818 308C845.3 319 872.7 325 886.3 328L900 331L900 275L886.3 273C872.7 271 845.3 267 818 258C790.7 249 763.3 235 736.2 243C709 251 682 281 654.8 294C627.7 307 600.3 303 573 296C545.7 289 518.3 279 491 270C463.7 261 436.3 253 409 253C381.7 253 354.3 261 327 271C299.7 281 272.3 293 245.2 289C218 285 191 265 163.8 256C136.7 247 109.3 249 82 262C54.7 275 27.3 299 13.7 311L0 323Z" fill="#adb5bb"></path><path d="M0 457L13.7 443C27.3 429 54.7 401 82 394C109.3 387 136.7 401 163.8 420C191 439 218 463 245.2 467C272.3 471 299.7 455 327 450C354.3 445 381.7 451 409 450C436.3 449 463.7 441 491 440C518.3 439 545.7 445 573 445C600.3 445 627.7 439 654.8 439C682 439 709 445 736.2 459C763.3 473 790.7 495 818 489C845.3 483 872.7 449 886.3 432L900 415L900 329L886.3 326C872.7 323 845.3 317 818 306C790.7 295 763.3 279 736.2 283C709 287 682 311 654.8 323C627.7 335 600.3 335 573 329C545.7 323 518.3 311 491 303C463.7 295 436.3 291 409 292C381.7 293 354.3 299 327 309C299.7 319 272.3 333 245.2 332C218 331 191 315 163.8 305C136.7 295 109.3 291 82 301C54.7 311 27.3 335 13.7 347L0 359Z" fill="#9da5ab"></path><path d="M0 601L13.7 601C27.3 601 54.7 601 82 601C109.3 601 136.7 601 163.8 601C191 601 218 601 245.2 601C272.3 601 299.7 601 327 601C354.3 601 381.7 601 409 601C436.3 601 463.7 601 491 601C518.3 601 545.7 601 573 601C600.3 601 627.7 601 654.8 601C682 601 709 601 736.2 601C763.3 601 790.7 601 818 601C845.3 601 872.7 601 886.3 601L900 601L900 413L886.3 430C872.7 447 845.3 481 818 487C790.7 493 763.3 471 736.2 457C709 443 682 437 654.8 437C627.7 437 600.3 443 573 443C545.7 443 518.3 437 491 438C463.7 439 436.3 447 409 448C381.7 449 354.3 443 327 448C299.7 453 272.3 469 245.2 465C218 461 191 437 163.8 418C136.7 399 109.3 385 82 392C54.7 399 27.3 427 13.7 441L0 455Z" fill="#8d959b"></path></svg>